<?xml version="1.0" encoding="utf-8"?>
<!-- Generator: Adobe Illustrator 26.0.1, SVG Export Plug-In . SVG Version: 6.00 Build 0)  -->
<svg version="1.1" id="Camada_1" xmlns="http://www.w3.org/2000/svg" xmlns:xlink="http://www.w3.org/1999/xlink" x="0px" y="0px"
	 viewBox="0 0 12 12" style="enable-background:new 0 0 12 12;" xml:space="preserve">
<style type="text/css">
	.st0{fill-rule:evenodd;clip-rule:evenodd;fill:#FFFFFF;}
</style>
<path class="st0" d="M2.4,6C2.4,4,4,2.4,6,2.4C8,2.4,9.6,4,9.6,6c0,0,0,0,0,0c0,0,0,0,0,0c0,0.1,0,0.3-0.1,0.5
	c0,0.2-0.1,0.3-0.1,0.4C9.3,7.1,9.1,7.2,8.9,7.2C8.6,7.2,8.4,7.2,8.3,7C8.2,6.9,8.1,6.8,8.1,6.4L8.1,4c0-0.2-0.2-0.4-0.4-0.4
	S7.3,3.8,7.3,4l0,0.3C7,4.1,6.5,3.9,6,3.9C4.8,3.9,3.9,4.8,3.9,6c0,1.2,0.9,2.1,2.1,2.1c0.6,0,1.2-0.3,1.6-0.7
	c0,0.1,0.1,0.1,0.2,0.2C8.1,7.8,8.5,8,8.9,8C9.3,8,9.7,7.8,10,7.5c0.2-0.2,0.3-0.5,0.3-0.7c0.1-0.2,0.1-0.5,0.1-0.7c0,0,0,0,0,0
	c0,0,0,0,0,0c0-2.4-2-4.4-4.4-4.4c-2.4,0-4.4,2-4.4,4.4c0,2.4,2,4.4,4.4,4.4c1,0,2-0.4,2.7-0.9c0.2-0.1,0.2-0.4,0.1-0.5
	C8.6,8.7,8.4,8.7,8.2,8.8C7.6,9.3,6.8,9.6,6,9.6C4,9.6,2.4,8,2.4,6z M6,4.7C5.3,4.7,4.7,5.3,4.7,6c0,0.7,0.6,1.3,1.3,1.3
	c0.7,0,1.3-0.6,1.3-1.3C7.3,5.3,6.7,4.7,6,4.7z"/>
</svg>
