<svg xmlns="http://www.w3.org/2000/svg" fill="#fff" preserveAspectRatio="xMidYMid meet" height="1em" width="1em" viewBox="0 0 42 42">
  <g>
    <path d="M30.9612095,2 L13.0383173,2 C6.95179283,2 2,6.95202943 2,13.0385539 L2,30.9614461 C2,37.0482072 6.95179283,42 13.0383173,42 L30.9612095,42 C37.0482072,42 42,37.0479706 42,30.9614461 L42,13.0385539 C42.0002366,6.95202943 37.0482072,2 30.9612095,2 Z M38.4512427,30.9614461 C38.4512427,35.091292 35.091292,38.4510061 30.9614461,38.4510061 L13.0383173,38.4510061 C8.90870805,38.4512427 5.54899386,35.091292 5.54899386,30.9614461 L5.54899386,13.0385539 C5.54899386,8.90894465 8.90870805,5.54899386 13.0383173,5.54899386 L30.9612095,5.54899386 C35.0910554,5.54899386 38.4510061,8.90894465 38.4510061,13.0385539 L38.4510061,30.9614461 L38.4512427,30.9614461 Z M22,11.6934852 C16.3166412,11.6934852 11.693012,16.3171144 11.693012,22.0004732 C11.693012,27.6835954 16.3166412,32.306988 22,32.306988 C27.6833588,32.306988 32.306988,27.6835954 32.306988,22.0004732 C32.306988,16.3171144 27.6833588,11.6934852 22,11.6934852 Z M22,28.7577575 C18.273793,28.7577575 15.2420059,25.7264436 15.2420059,22.0002366 C15.2420059,18.273793 18.2735564,15.2422425 22,15.2422425 C25.7264436,15.2422425 28.7579941,18.273793 28.7579941,22.0002366 C28.7579941,25.7264436 25.726207,28.7577575 22,28.7577575 Z M32.7392554,8.68417504 C32.0554826,8.68417504 31.3837764,8.96099656 30.9008766,9.44602572 C30.4156108,9.92868888 30.1366599,10.6006317 30.1366599,11.2867705 C30.1366599,11.97078 30.4158474,12.6424862 30.9008766,13.1275153 C31.3835398,13.6101785 32.0554826,13.889366 32.7392554,13.889366 C33.4253942,13.889366 34.0949711,13.6101785 34.5800002,13.1275153 C35.0650294,12.6424862 35.3418509,11.9705434 35.3418509,11.2867705 C35.3418509,10.6006317 35.0650294,9.92868888 34.5800002,9.44602572 C34.0973371,8.96099656 33.4253942,8.68417504 32.7392554,8.68417504 Z M38.4512427,30.9614461 C38.4512427,35.091292 35.091292,38.4510061 30.9614461,38.4510061 L13.0383173,38.4510061 C8.90870805,38.4512427 5.54899386,35.091292 5.54899386,30.9614461 L5.54899386,13.0385539 C5.54899386,8.90894465 8.90870805,5.54899386 13.0383173,5.54899386 L30.9612095,5.54899386 C35.0910554,5.54899386 38.4510061,8.90894465 38.4510061,13.0385539 L38.4510061,30.9614461 L38.4512427,30.9614461 Z M30.9612095,2 L13.0383173,2 C6.95179283,2 2,6.95202943 2,13.0385539 L2,30.9614461 C2,37.0482072 6.95179283,42 13.0383173,42 L30.9612095,42 C37.0482072,42 42,37.0479706 42,30.9614461 L42,13.0385539 C42.0002366,6.95202943 37.0482072,2 30.9612095,2 Z"></path>
  </g>
</svg>

