<?xml version="1.0" encoding="utf-8"?>
<!-- Generator: Adobe Illustrator 26.0.1, SVG Export Plug-In . SVG Version: 6.00 Build 0)  -->
<svg version="1.1" id="Capa_1" xmlns="http://www.w3.org/2000/svg" xmlns:xlink="http://www.w3.org/1999/xlink" x="0px" y="0px"
	 viewBox="0 0 12 12" style="enable-background:new 0 0 12 12;" xml:space="preserve">
<style type="text/css">
	.st0{fill:#FFFFFF;}
</style>
<g>
	<path class="st0" d="M6,0.8C3.1,0.8,0.8,3.1,0.8,6c0,1,0.3,2,0.8,2.8L1.7,9l-0.5,1.8l1.9-0.5l0.2,0.1C4.1,11,5,11.2,6,11.2
		c2.9,0,5.2-2.3,5.2-5.2S8.9,0.8,6,0.8z M9.2,7.6L9.1,7.9C9.1,8.3,8.9,8.6,8.6,8.7C8.2,9,7.7,9.1,7.1,8.9c-1.9-0.5-3-1.8-3.6-2.6
		C2.9,5.5,2.7,4.8,2.9,4.1C3,3.7,3.3,3.3,3.5,3.2C3.6,3.1,3.7,3,3.8,3l0.4,0c0.1,0,0.2,0.1,0.2,0.1L5,4.6c0,0.1,0,0.2,0,0.2L4.5,5.4
		c0,0,0,0.1,0,0.2c0.7,1.3,1.9,1.8,2.3,2c0.1,0,0.1,0,0.2-0.1l0.5-0.7c0.1-0.1,0.2-0.1,0.3-0.1l1.4,0.6C9.2,7.4,9.2,7.5,9.2,7.6z"/>
</g>
</svg>
