<svg width="200" height="200" viewBox="0 0 200 200" fill="none" xmlns="http://www.w3.org/2000/svg">
<g clip-path="url(#clip0_4018_27)">
<path d="M200 0H0V200H200V0Z" fill="#2C2C2C"/>
<path d="M54.93 68.55V94.91H57.68C58.78 94.91 59.6933 94.7566 60.42 94.45C61.14 94.15 61.7633 93.6667 62.29 93L79.64 71.03C80.3666 70.1033 81.13 69.4566 81.93 69.09C82.7233 68.73 83.73 68.55 84.95 68.55H95.04L73.86 94.69C72.6133 96.2833 71.3233 97.4166 69.99 98.09C70.9433 98.4366 71.8033 98.92 72.57 99.54C73.3433 100.167 74.0766 100.987 74.77 102L96.61 131.45H86.3C84.9067 131.45 83.87 131.253 83.19 130.86C82.51 130.473 81.9366 129.9 81.47 129.14L63.68 105.92C63.1266 105.133 62.4866 104.58 61.76 104.26C61.04 103.94 59.9966 103.78 58.63 103.78H54.93V131.45H43.23V68.55H54.93ZM116.1 107.7H136.11L128.45 86.78C128.07 85.8467 127.68 84.7433 127.28 83.47C126.873 82.1967 126.467 80.82 126.06 79.34C125.68 80.82 125.287 82.2033 124.88 83.49C124.473 84.7833 124.083 85.9067 123.71 86.86L116.1 107.7ZM132.06 68.55L156.77 131.45H147.72C146.707 131.45 145.88 131.197 145.24 130.69C144.6 130.183 144.123 129.553 143.81 128.8L139.11 115.96H113.05L108.35 128.8C108.123 129.467 107.673 130.073 107 130.62C106.333 131.173 105.51 131.45 104.53 131.45H95.39L120.14 68.55H132.06Z" fill="#F5C518"/>
</g>
<defs>
<clipPath id="clip0_4018_27">
<rect width="200" height="200" fill="white"/>
</clipPath>
</defs>
</svg>
